<svg width="53" height="26" viewBox="0 0 53 26" fill="none" xmlns="http://www.w3.org/2000/svg">
<path d="M13.9809 25.8976C11.6618 25.8976 9.56355 25.3454 7.68618 24.2411C5.80881 23.1367 4.329 21.6127 3.24675 19.6691C2.18658 17.7255 1.6565 15.5499 1.6565 13.1425C1.6565 10.735 2.18658 8.55949 3.24675 6.61586C4.329 4.67223 5.79776 3.15929 7.65305 2.07704C9.53042 0.972704 11.6397 0.420536 13.9809 0.420536C15.6816 0.420536 17.2387 0.718707 18.6522 1.31505C20.0658 1.8893 21.2585 2.67338 22.2303 3.66728C23.2242 4.6391 23.942 5.72135 24.3837 6.91403L20.3419 8.80244C19.856 7.52141 19.0498 6.49438 17.9234 5.72135C16.7969 4.92623 15.4828 4.52867 13.9809 4.52867C12.4569 4.52867 11.0986 4.8931 9.90589 5.62196C8.71321 6.32873 7.78557 7.33368 7.12297 8.63679C6.48245 9.93991 6.16219 11.4418 6.16219 13.1425C6.16219 14.8432 6.48245 16.3561 7.12297 17.6813C7.78557 18.9844 8.71321 20.0004 9.90589 20.7293C11.0986 21.436 12.4569 21.7894 13.9809 21.7894C15.4828 21.7894 16.7969 21.4029 17.9234 20.6299C19.0498 19.8348 19.856 18.7967 20.3419 17.5157L24.3837 19.4041C23.942 20.5967 23.2242 21.69 22.2303 22.6839C21.2585 23.6558 20.0658 24.4398 18.6522 25.0362C17.2387 25.6104 15.6816 25.8976 13.9809 25.8976Z" fill="#5DF590"/>
<path d="M39.0191 25.8976C41.3382 25.8976 43.4365 25.3454 45.3138 24.2411C47.1912 23.1367 48.671 21.6127 49.7533 19.6691C50.8134 17.7255 51.3435 15.5499 51.3435 13.1425C51.3435 10.735 50.8134 8.55949 49.7533 6.61586C48.671 4.67223 47.2022 3.15929 45.347 2.07704C43.4696 0.972704 41.3603 0.420536 39.0191 0.420536C37.3184 0.420536 35.7613 0.718707 34.3478 1.31505C32.9342 1.8893 31.7415 2.67338 30.7697 3.66728C29.7758 4.6391 29.058 5.72135 28.6163 6.91403L32.6581 8.80244C33.144 7.52141 33.9502 6.49438 35.0766 5.72135C36.2031 4.92623 37.5172 4.52867 39.0191 4.52867C40.5431 4.52867 41.9014 4.8931 43.0941 5.62196C44.2868 6.32873 45.2144 7.33368 45.877 8.63679C46.5175 9.93991 46.8378 11.4418 46.8378 13.1425C46.8378 14.8432 46.5175 16.3561 45.877 17.6813C45.2144 18.9844 44.2868 20.0004 43.0941 20.7293C41.9014 21.436 40.5431 21.7894 39.0191 21.7894C37.5172 21.7894 36.2031 21.4029 35.0766 20.6299C33.9502 19.8348 33.144 18.7967 32.6581 17.5157L28.6163 19.4041C29.058 20.5967 29.7758 21.69 30.7697 22.6839C31.7415 23.6558 32.9342 24.4398 34.3478 25.0362C35.7613 25.6104 37.3184 25.8976 39.0191 25.8976Z" fill="#5DF590"/>
</svg>
